<svg xmlns="http://www.w3.org/2000/svg" viewBox="0 0 41.27 32"><defs><style>.cls-1{fill:#d4bdc6;}</style></defs><g id="Capa_2" data-name="Capa 2"><g id="Layer_1" data-name="Layer 1"><path class="cls-1" d="M36.91,16.55,34.81,10A7.93,7.93,0,0,0,31,5a8.12,8.12,0,0,0-6.3-.17,9.65,9.65,0,0,0-1.52.65,6.29,6.29,0,0,0-1.34,1,2.58,2.58,0,0,0-2-.11,3.06,3.06,0,0,0-1.78,1.37,3,3,0,0,0-.14,2.34,9,9,0,0,0-7.22-.69A9.16,9.16,0,0,0,4.43,19.46a2.6,2.6,0,0,1,.41.53,2.78,2.78,0,0,1,.39,1.69,1.52,1.52,0,0,1,.48-.1,1.43,1.43,0,0,1,1.48,1.61.85.85,0,0,1,.23,0h0a1.91,1.91,0,0,1,1.45.49,1.5,1.5,0,0,1,.35.5,1.24,1.24,0,0,1,.61,2H10a2.81,2.81,0,0,1,2.15.87,1.47,1.47,0,0,1,.46.11l.17.08a8.24,8.24,0,0,0,1.11,0h0l.33,0a9,9,0,0,0,2.09-.4,9.18,9.18,0,0,0,5.43-4.95,3.4,3.4,0,0,0,1.51,1.92,3,3,0,0,0,2.21,0,2.77,2.77,0,0,0,1.65-1.43,3.46,3.46,0,0,0,0-2.72L25,13a2.14,2.14,0,0,1,.24-1.6,2.11,2.11,0,0,1,1.25-1,2.2,2.2,0,0,1,2.79,1.44l2.08,6.5A3.37,3.37,0,0,0,33,20.54a3,3,0,0,0,2.26.13,2.79,2.79,0,0,0,1.69-1.39A3.44,3.44,0,0,0,36.91,16.55ZM19.16,18.21A5.8,5.8,0,0,1,12,23.89h0a5.62,5.62,0,0,1-1.77-.73A5.91,5.91,0,0,1,8.48,21.5a5.85,5.85,0,0,1,1.26-8l.06,0a5.89,5.89,0,0,1,1.74-.91,5.81,5.81,0,0,1,5.28.92l.1.08.1.08.14.12.17.15a1.14,1.14,0,0,0,.11.11h0l.12.13.11.12a5.84,5.84,0,0,1,1.46,3.4h0c0,.06,0,.12,0,.18a1.77,1.77,0,0,0,0,.23v.11Z"/><path class="cls-1" d="M17.1,17.07a1.71,1.71,0,0,1-.23,1.47,14.47,14.47,0,0,1-3,3.2,1.76,1.76,0,0,1-.56.29h0A1.71,1.71,0,0,1,12.13,22a1.74,1.74,0,0,1-.87-.84A14.07,14.07,0,0,1,10,16.93a1.7,1.7,0,0,1,.26-1.18,1.73,1.73,0,0,1,.93-.71h0a2,2,0,0,1,.6-.06,14.53,14.53,0,0,1,4.27,1A1.75,1.75,0,0,1,17.1,17.07Z"/><path class="cls-1" d="M12.24,28a.57.57,0,0,0-.51,0,1.91,1.91,0,1,0-1.44,2.87l.1,0a.58.58,0,0,0,1.09.41l1.06-2.52A.57.57,0,0,0,12.24,28Zm-2.05,1.94A1,1,0,0,1,10,28a1,1,0,1,1,.21,1.9Z"/><path class="cls-1" d="M6.2,22.69a.54.54,0,1,1-.75-.11A.53.53,0,0,1,6.2,22.69ZM3.15,25.52a.48.48,0,0,1-.56-.77l1.89-1.38a.48.48,0,0,1,.56.77Z"/><path class="cls-1" d="M6.72,24.4a.52.52,0,0,1,.15.55,2,2,0,0,1,.87.45,1.9,1.9,0,0,1,.14,2.69l-1,1.07a.49.49,0,0,1-.68,0,.47.47,0,0,1,0-.67l1-1.06a1,1,0,1,0-1.41-1.28l-1,1.06a.47.47,0,1,1-.71-.63l1-1.07A1.88,1.88,0,0,1,5.86,25a.53.53,0,0,1,.1-.57A.54.54,0,0,1,6.72,24.4Zm.82.35a.35.35,0,0,1-.26-.09.35.35,0,0,1,0-.5A.32.32,0,0,1,7.5,24a1,1,0,0,1,.8.26c.2.18.19.49.31.6A.37.37,0,0,0,8.9,25a.35.35,0,0,1,.26.09.35.35,0,0,1,0,.5.33.33,0,0,1-.25.12,1,1,0,0,1-.81-.26c-.19-.17-.19-.49-.3-.6A.38.38,0,0,0,7.54,24.75Z"/><path class="cls-1" d="M15,31.05a.25.25,0,0,0,.25-.23.24.24,0,0,0-.23-.25l-.95-.05a1.19,1.19,0,0,1,.13-2.38l1.43.07a.49.49,0,0,1,.45.51.48.48,0,0,1-.5.45l-1.43-.08a.24.24,0,0,0-.25.22.22.22,0,0,0,.22.25l1,.06A1.19,1.19,0,0,1,15,32l-1.67-.09a.48.48,0,0,1,.05-1Z"/><path class="cls-1" d="M3.39,19.2a.51.51,0,0,1,0,.57,2,2,0,0,1,.7.68,1.9,1.9,0,0,1-.64,2.62l-1.23.74A.47.47,0,0,1,1.71,23l1.22-.74a1,1,0,0,0-1-1.64l-1.23.74a.47.47,0,0,1-.65-.16.49.49,0,0,1,.16-.66l1.22-.73a1.82,1.82,0,0,1,.94-.27A.55.55,0,0,1,2.65,19,.54.54,0,0,1,3.39,19.2Z"/><path class="cls-1" d="M20,29.93,18.6,28.52a1.24,1.24,0,0,1-.33-.43.45.45,0,0,1,.32-.55.49.49,0,0,1,.59.17l1,1.1.19-1.48a.53.53,0,0,1,.4-.48.44.44,0,0,1,.57.27,1.44,1.44,0,0,1,0,.54L20.77,31a.51.51,0,0,1-.4.47.42.42,0,0,1-.56-.26,1.16,1.16,0,0,1,0-.55Z"/><path class="cls-1" d="M27.62,23.44a.54.54,0,0,1,.69.31.54.54,0,1,1-.69-.31Zm1.9,3.7a.47.47,0,1,1-.89.33l-.82-2.19a.47.47,0,0,1,.27-.61.48.48,0,0,1,.62.28Z"/><path class="cls-1" d="M40.17,22.55a.24.24,0,0,0,.13-.31A.23.23,0,0,0,40,22.1l-.88.35a1.19,1.19,0,0,1-.88-2.22l1.34-.52a.48.48,0,0,1,.62.27.49.49,0,0,1-.27.62l-1.34.52a.24.24,0,0,0,.18.44l.89-.35a1.19,1.19,0,0,1,.87,2.22L39,24.05a.48.48,0,0,1-.61-.27.47.47,0,0,1,.27-.62Z"/><path class="cls-1" d="M23.54,25.78a.53.53,0,0,1,.56.13,1.91,1.91,0,0,1,3.24.6l.49,1.35a.5.5,0,0,1-.29.61.48.48,0,0,1-.61-.29l-.48-1.35a1,1,0,0,0-1.22-.58,1,1,0,0,0-.58,1.22l.48,1.35a.48.48,0,0,1-.9.32l-.48-1.35a1.79,1.79,0,0,1-.08-1,.54.54,0,0,1-.13-1Z"/><path class="cls-1" d="M29.57,23.47a.53.53,0,0,1,.56.14,1.93,1.93,0,0,1,.82-.54,1.91,1.91,0,0,1,2.41,1.21l.46,1.36a.48.48,0,0,1-.91.3l-.45-1.36a1,1,0,0,0-1.21-.6.94.94,0,0,0-.6,1.2l.45,1.36a.48.48,0,0,1-.91.3l-.45-1.36a1.78,1.78,0,0,1,0-1,.53.53,0,0,1-.12-1Zm.72-.54a.37.37,0,0,1-.21.18.35.35,0,0,1-.45-.23.36.36,0,0,1,0-.27,1,1,0,0,1,.62-.57c.25-.08.53.08.67,0s.16-.1.22-.22a.39.39,0,0,1,.2-.18.37.37,0,0,1,.46.23.39.39,0,0,1,0,.28,1.07,1.07,0,0,1-.63.57c-.25.08-.52-.08-.67,0S30.35,22.82,30.29,22.93Z"/><path class="cls-1" d="M35.11,21.69A1.91,1.91,0,1,1,34,24.14,1.92,1.92,0,0,1,35.11,21.69Zm1,2.69a1,1,0,0,0,.57-1.23,1,1,0,1,0-.57,1.23Z"/><path class="cls-1" d="M13.28,4.38a1.91,1.91,0,1,1-2.5,1A1.91,1.91,0,0,1,13.28,4.38ZM12.18,7a1,1,0,1,0-.52-1.25A1,1,0,0,0,12.18,7Z"/><path class="cls-1" d="M21.53,4.56A1.91,1.91,0,1,1,20.13,1a1.94,1.94,0,0,1,1.46,0,.46.46,0,0,1,.25.26.48.48,0,0,1-.26.62.48.48,0,0,1-.37,0,.93.93,0,0,0-.73,0,1,1,0,0,0,.7,1.78,1,1,0,0,0,.53-.51A.46.46,0,0,1,22,2.92a.49.49,0,0,1,.62.27.5.5,0,0,1,0,.36A1.89,1.89,0,0,1,21.53,4.56Z"/><path class="cls-1" d="M14.42,3.07a.52.52,0,0,1,.57.09,1.94,1.94,0,0,1,.77-.61,1.91,1.91,0,0,1,2.51,1l.58,1.31a.48.48,0,0,1-.88.38L17.4,3.91a1,1,0,1,0-1.75.77L16.22,6a.48.48,0,0,1-.24.63.49.49,0,0,1-.63-.25l-.57-1.31a1.79,1.79,0,0,1-.15-1,.53.53,0,0,1-.48-.33A.53.53,0,0,1,14.42,3.07Z"/><path class="cls-1" d="M25,3.76a1.91,1.91,0,1,1,1.41-2.3.48.48,0,0,1-.35.58l-2.2.52a.94.94,0,0,0,.92.28l.46-.11a.47.47,0,1,1,.22.92ZM23.65,1.64l1.61-.39A1,1,0,0,0,24.34,1,.94.94,0,0,0,23.65,1.64Z"/></g></g></svg>