<?xml version="1.0" encoding="UTF-8"?><svg id="Capa_2" xmlns="http://www.w3.org/2000/svg" viewBox="0 0 19.08 19.08"><defs><style>.cls-3{fill:none;}.cls-2{fill:#d4bdc6;}</style></defs><g id="Layer_7"><g><g><path class="cls-2" d="M18.22,10.62s.06-.09,.07-.14c.04-.34,.06-.68,.06-1.03C18.35,4.6,14.41,.67,9.55,.67S.75,4.6,.75,9.45s3.94,8.79,8.8,8.79c.29,0,.58-.01,.87-.04,.05,0,.1-.03,.14-.07l2.7-2.65s.07-.1,.07-.17v-1.7c0-.13,.1-.23,.23-.23h1.79c.06,0,.12-.02,.17-.07l2.7-2.69Zm-7.77,2.81c-.29,.06-.59,.1-.9,.1-2.26,0-4.08-1.83-4.08-4.08s1.83-4.08,4.08-4.08,4.08,1.83,4.08,4.08c0,.37-.05,.73-.14,1.07h-2.81c-.13,0-.23,.1-.23,.23v2.67Z"/><circle class="cls-2" cx="16.01" cy="16.11" r="1.51"/></g><rect class="cls-3" width="19.08" height="19.08" transform="translate(19.08 19.08) rotate(180)"/></g></g></svg>