<?xml version="1.0" encoding="UTF-8"?><svg id="Capa_2" xmlns="http://www.w3.org/2000/svg" xmlns:xlink="http://www.w3.org/1999/xlink" viewBox="0 0 278.34 57.46"><defs><style>.cls-1{fill:none;}.cls-2{fill:#7a163a;}.cls-3{fill:url(#Degradado_sin_nombre_3-3);}.cls-4{fill:url(#Degradado_sin_nombre_3-4);}.cls-5{fill:url(#Degradado_sin_nombre_3-2);}.cls-6{fill:url(#Degradado_sin_nombre_3);}</style><linearGradient id="Degradado_sin_nombre_3" x1="138.58" y1="28.73" x2="139.58" y2="28.73" gradientUnits="userSpaceOnUse"><stop offset="0" stop-color="#ce1e4e"/><stop offset="1" stop-color="#7a163a"/></linearGradient><linearGradient id="Degradado_sin_nombre_3-2" x1="37.59" y1="29.01" x2="78.13" y2="29.01" xlink:href="#Degradado_sin_nombre_3"/><linearGradient id="Degradado_sin_nombre_3-3" x1="0" y1="29.01" x2="35.54" y2="29.01" xlink:href="#Degradado_sin_nombre_3"/><linearGradient id="Degradado_sin_nombre_3-4" x1="78.77" y1="29.01" x2="123.08" y2="29.01" xlink:href="#Degradado_sin_nombre_3"/></defs><g id="Capa_1-2"><g><rect class="cls-6" x="138.58" width="1" height="57.46"/><g><path class="cls-2" d="m160.66,23.95c-1.09,0-2.14-.16-3.13-.47s-1.79-.72-2.39-1.21l.9-2.02c.56.44,1.25.81,2.08,1.1.83.29,1.67.44,2.54.44.73,0,1.33-.08,1.78-.24.45-.16.79-.38,1-.65.21-.27.32-.58.32-.93,0-.43-.15-.77-.46-1.03-.31-.26-.7-.47-1.19-.62-.49-.15-1.03-.29-1.62-.42s-1.19-.28-1.78-.47c-.59-.19-1.14-.42-1.63-.71-.49-.29-.89-.67-1.19-1.15-.3-.48-.45-1.09-.45-1.84s.2-1.46.61-2.09c.41-.63,1.03-1.14,1.86-1.52.83-.38,1.89-.57,3.17-.57.84,0,1.67.11,2.5.32.83.21,1.55.52,2.16.92l-.82,2.02c-.63-.37-1.27-.65-1.94-.83-.67-.18-1.31-.27-1.92-.27-.71,0-1.29.09-1.74.26-.45.17-.78.4-.99.69s-.31.6-.31.95c0,.43.15.77.45,1.03.3.26.69.46,1.18.61.49.15,1.03.29,1.63.42.6.13,1.19.29,1.78.47.59.18,1.13.41,1.62.7.49.29.89.67,1.19,1.14s.45,1.08.45,1.81-.2,1.44-.61,2.07-1.03,1.14-1.87,1.52c-.84.38-1.9.57-3.18.57Z"/><path class="cls-2" d="m169.92,11.3c-.47,0-.85-.15-1.15-.44-.3-.29-.45-.65-.45-1.08,0-.4.15-.75.45-1.04.3-.29.68-.44,1.15-.44s.85.14,1.15.41c.3.27.45.62.45,1.05s-.15.79-.44,1.09c-.29.3-.68.45-1.16.45Zm-1.24,12.45v-10.69h2.48v10.69h-2.48Z"/><path class="cls-2" d="m177.77,23.89c-.91,0-1.77-.12-2.58-.35-.81-.23-1.47-.52-1.96-.85l.96-1.9c.48.31,1.05.56,1.72.75.67.19,1.34.29,2.02.29.77,0,1.34-.1,1.69-.31s.53-.49.53-.85c0-.29-.12-.52-.36-.67s-.55-.27-.94-.35c-.39-.08-.82-.15-1.29-.22-.47-.07-.95-.16-1.42-.27s-.9-.28-1.29-.5c-.39-.22-.7-.52-.94-.89-.24-.37-.36-.87-.36-1.5,0-.67.19-1.25.58-1.75.39-.5.93-.89,1.63-1.17s1.53-.42,2.49-.42c.71,0,1.43.08,2.17.25.74.17,1.36.4,1.85.69l-.98,1.9c-.49-.29-1-.5-1.52-.61-.52-.11-1.04-.17-1.54-.17-.75,0-1.31.11-1.68.33-.37.22-.56.5-.56.85,0,.32.12.56.36.72s.55.28.94.37c.39.09.82.17,1.29.24s.94.17,1.41.28.9.27,1.29.48.71.5.95.87c.24.37.36.86.36,1.46,0,.68-.2,1.26-.59,1.75s-.95.87-1.66,1.14-1.57.41-2.57.41Z"/><path class="cls-2" d="m190.46,21.39c-.36.29-.81.44-1.36.44-.48,0-.85-.14-1.12-.42-.27-.28-.4-.67-.4-1.18v-5.08h2.88v-2h-2.88v-2.44h-2.48v2.44h-1.76v2h1.76v5.16c0,1.17.32,2.06.96,2.67s1.55.91,2.72.91c.44,0,.87-.06,1.3-.18s.79-.3,1.1-.54l-.72-1.78Z"/><path class="cls-2" d="m202.23,15.54c-.47-.83-1.11-1.47-1.92-1.93-.81-.46-1.74-.69-2.78-.69s-2.02.24-2.85.71-1.49,1.12-1.96,1.94c-.47.82-.71,1.76-.71,2.83s.24,2.01.73,2.83c.49.82,1.17,1.47,2.06,1.94s1.92.71,3.11.71c.93,0,1.76-.15,2.49-.44.73-.29,1.34-.72,1.83-1.28l-1.36-1.56c-.37.39-.8.68-1.28.88s-1.02.3-1.62.3c-.71,0-1.33-.14-1.86-.41-.53-.27-.94-.66-1.23-1.15-.18-.31-.28-.66-.35-1.02h8.37c.01-.11.02-.23.03-.37,0-.14,0-.26,0-.35,0-1.13-.23-2.11-.7-2.94Zm-7.41.92c.25-.48.62-.85,1.09-1.11.47-.26,1.01-.39,1.61-.39s1.15.13,1.6.39c.45.26.81.63,1.07,1.1.18.33.27.7.32,1.09h-6.01c.06-.39.15-.76.32-1.08Z"/><path class="cls-2" d="m222.65,14.96c-.37-.69-.89-1.21-1.55-1.54-.66-.33-1.42-.5-2.27-.5-1.05,0-1.98.25-2.78.74-.5.31-.89.67-1.21,1.09-.26-.45-.58-.82-.99-1.09-.73-.49-1.6-.74-2.6-.74-.89,0-1.68.19-2.37.56-.45.24-.82.56-1.13.94v-1.36h-2.38v10.69h2.48v-5.42c0-.71.12-1.3.35-1.77s.56-.83.98-1.07c.42-.24.9-.36,1.45-.36.77,0,1.37.23,1.79.7.42.47.63,1.17.63,2.12v5.8h2.48v-5.42c0-.71.12-1.3.35-1.77s.56-.83.98-1.07c.42-.24.9-.36,1.45-.36.77,0,1.37.23,1.79.7.42.47.63,1.17.63,2.12v5.8h2.48v-6.12c0-1.08-.19-1.97-.56-2.66Z"/><path class="cls-2" d="m234.09,14.04c-.84-.75-2.04-1.12-3.6-1.12-.85,0-1.67.11-2.46.34s-1.47.56-2.06,1l.98,1.82c.41-.33.91-.59,1.48-.78.57-.19,1.15-.28,1.74-.28.91,0,1.58.2,2.03.61.45.41.67.98.67,1.71v.16h-2.78c-1.08,0-1.95.14-2.6.42-.65.28-1.12.66-1.41,1.14-.29.48-.43,1.02-.43,1.62s.16,1.16.49,1.65.79.87,1.39,1.14,1.3.41,2.1.41c.96,0,1.75-.17,2.36-.52.43-.24.76-.55,1-.93v1.31h2.36v-6.26c0-1.55-.42-2.7-1.26-3.44Zm-2.29,7.61c-.49.28-1.04.42-1.65.42s-1.14-.13-1.5-.4c-.36-.27-.54-.62-.54-1.06,0-.41.15-.76.45-1.03.3-.27.87-.41,1.71-.41h2.6v1.24c-.23.55-.58.96-1.07,1.24Z"/><path class="cls-2" d="m241.88,23.89c-.91,0-1.77-.12-2.58-.35-.81-.23-1.47-.52-1.96-.85l.96-1.9c.48.31,1.05.56,1.72.75.67.19,1.34.29,2.02.29.77,0,1.34-.1,1.69-.31s.53-.49.53-.85c0-.29-.12-.52-.36-.67s-.55-.27-.94-.35c-.39-.08-.82-.15-1.29-.22-.47-.07-.95-.16-1.42-.27s-.9-.28-1.29-.5c-.39-.22-.7-.52-.94-.89-.24-.37-.36-.87-.36-1.5,0-.67.19-1.25.58-1.75.39-.5.93-.89,1.63-1.17s1.53-.42,2.49-.42c.71,0,1.43.08,2.17.25.74.17,1.36.4,1.85.69l-.98,1.9c-.49-.29-1-.5-1.52-.61-.52-.11-1.04-.17-1.54-.17-.75,0-1.31.11-1.68.33-.37.22-.56.5-.56.85,0,.32.12.56.36.72s.55.28.94.37c.39.09.82.17,1.29.24s.94.17,1.41.28.9.27,1.29.48.71.5.95.87c.24.37.36.86.36,1.46,0,.68-.2,1.26-.59,1.75s-.95.87-1.66,1.14-1.57.41-2.57.41Z"/><path class="cls-2" d="m262.34,8.9v5.45c-.3-.34-.64-.62-1.02-.83-.71-.39-1.51-.59-2.4-.59-1.03,0-1.95.23-2.77.68-.82.45-1.46,1.09-1.93,1.92-.47.83-.7,1.79-.7,2.88s.23,2.07.7,2.89c.47.82,1.11,1.46,1.93,1.91.82.45,1.75.68,2.77.68.93,0,1.75-.2,2.45-.59.43-.24.79-.57,1.11-.97v1.42h2.38v-14.85h-2.52Zm-.37,11.28c-.29.51-.67.91-1.14,1.18-.47.27-1.01.41-1.61.41s-1.14-.14-1.61-.41c-.47-.27-.85-.67-1.14-1.18-.29-.51-.43-1.1-.43-1.77s.14-1.27.43-1.77c.29-.5.67-.89,1.14-1.16.47-.27,1.01-.41,1.61-.41s1.14.14,1.61.41c.47.27.85.66,1.14,1.16.29.5.43,1.09.43,1.77s-.14,1.26-.43,1.77Z"/><path class="cls-2" d="m277.49,15.54c-.47-.83-1.11-1.47-1.92-1.93-.81-.46-1.74-.69-2.78-.69s-2.02.24-2.85.71-1.49,1.12-1.96,1.94c-.47.82-.71,1.76-.71,2.83s.24,2.01.73,2.83c.49.82,1.17,1.47,2.06,1.94s1.92.71,3.11.71c.93,0,1.76-.15,2.49-.44.73-.29,1.34-.72,1.83-1.28l-1.36-1.56c-.37.39-.8.68-1.28.88s-1.02.3-1.62.3c-.71,0-1.33-.14-1.86-.41-.53-.27-.94-.66-1.23-1.15-.18-.31-.28-.66-.35-1.02h8.37c.01-.11.02-.23.03-.37,0-.14,0-.26,0-.35,0-1.13-.23-2.11-.7-2.94Zm-7.41.92c.25-.48.62-.85,1.09-1.11.47-.26,1.01-.39,1.61-.39s1.15.13,1.6.39c.45.26.81.63,1.07,1.1.18.33.27.7.32,1.09h-6.01c.06-.39.15-.76.32-1.08Z"/><path class="cls-2" d="m162.8,47.97c-1.08,0-2.08-.18-2.98-.53-.91-.35-1.7-.86-2.37-1.51-.67-.65-1.2-1.41-1.57-2.28-.37-.87-.56-1.83-.56-2.88s.19-2.01.56-2.88c.37-.87.9-1.63,1.58-2.28.68-.65,1.47-1.16,2.38-1.51s1.9-.53,2.98-.53c1.15,0,2.2.2,3.14.59s1.75.98,2.4,1.75l-1.68,1.58c-.52-.55-1.09-.96-1.72-1.23-.63-.27-1.3-.41-2.02-.41s-1.4.12-2.01.36-1.13.58-1.58,1.02-.8.96-1.05,1.56c-.25.6-.38,1.26-.38,1.98s.13,1.38.38,1.98c.25.6.6,1.12,1.05,1.56s.97.78,1.58,1.02,1.28.36,2.01.36,1.39-.14,2.02-.41c.63-.27,1.2-.69,1.72-1.25l1.68,1.58c-.65.77-1.46,1.36-2.4,1.76s-2,.6-3.16.6Z"/><path class="cls-2" d="m178.91,38.06c-.84-.75-2.04-1.12-3.6-1.12-.85,0-1.67.11-2.46.34s-1.47.56-2.06,1l.98,1.82c.41-.33.91-.59,1.48-.78.57-.19,1.15-.28,1.74-.28.91,0,1.58.2,2.03.61.45.41.67.98.67,1.71v.16h-2.78c-1.08,0-1.95.14-2.6.42-.65.28-1.12.66-1.41,1.14-.29.48-.43,1.02-.43,1.62s.16,1.16.49,1.65.79.87,1.39,1.14,1.3.41,2.1.41c.96,0,1.75-.17,2.36-.52.43-.24.76-.55,1-.93v1.31h2.36v-6.26c0-1.55-.42-2.7-1.26-3.44Zm-2.29,7.61c-.49.28-1.04.42-1.65.42s-1.14-.13-1.5-.4c-.36-.27-.54-.62-.54-1.06,0-.41.15-.76.45-1.03.3-.27.87-.41,1.71-.41h2.6v1.24c-.23.55-.58.96-1.07,1.24Z"/><path class="cls-2" d="m190.14,36.94c.87,0,1.63.17,2.29.5.66.33,1.19.85,1.58,1.54.39.69.59,1.58.59,2.66v6.12h-2.5v-5.8c0-.95-.22-1.65-.66-2.12-.44-.47-1.07-.7-1.88-.7-.59,0-1.11.12-1.56.36-.45.24-.8.6-1.05,1.07-.25.47-.37,1.07-.37,1.79v5.4h-2.48v-10.69h2.38v2.9l-.42-.9c.36-.68.9-1.21,1.61-1.58.71-.37,1.54-.56,2.47-.56Z"/><path class="cls-2" d="m206.17,38.06c-.84-.75-2.04-1.12-3.6-1.12-.85,0-1.67.11-2.46.34s-1.47.56-2.06,1l.98,1.82c.41-.33.91-.59,1.48-.78.57-.19,1.15-.28,1.74-.28.91,0,1.58.2,2.03.61.45.41.67.98.67,1.71v.16h-2.78c-1.08,0-1.95.14-2.6.42-.65.28-1.12.66-1.41,1.14-.29.48-.43,1.02-.43,1.62s.16,1.16.49,1.65.79.87,1.39,1.14,1.3.41,2.1.41c.96,0,1.75-.17,2.36-.52.43-.24.76-.55,1-.93v1.31h2.36v-6.26c0-1.55-.42-2.7-1.26-3.44Zm-2.29,7.61c-.49.28-1.04.42-1.65.42s-1.14-.13-1.5-.4c-.36-.27-.54-.62-.54-1.06,0-.41.15-.76.45-1.03.3-.27.87-.41,1.71-.41h2.6v1.24c-.23.55-.58.96-1.07,1.24Z"/><path class="cls-2" d="m211.36,47.77v-14.85h2.48v14.85h-2.48Z"/><path class="cls-2" d="m230.85,47.97c-1.08,0-2.08-.18-3.01-.54-.93-.36-1.73-.87-2.41-1.52-.68-.65-1.21-1.42-1.58-2.29-.37-.87-.56-1.82-.56-2.85s.19-2,.56-2.87c.37-.87.9-1.63,1.58-2.28.68-.65,1.48-1.15,2.4-1.51s1.93-.54,3.02-.54,2.08.18,3,.53,1.72.85,2.39,1.5,1.2,1.41,1.57,2.29c.37.88.56,1.84.56,2.88s-.19,2-.56,2.87c-.37.88-.9,1.64-1.57,2.29-.67.65-1.47,1.16-2.39,1.51s-1.92.53-3,.53Zm0-2.28c.71,0,1.36-.12,1.95-.36s1.11-.58,1.55-1.02.78-.96,1.03-1.56c.25-.6.37-1.26.37-1.98s-.12-1.38-.36-1.98-.58-1.12-1.03-1.56-.97-.78-1.56-1.02-1.25-.36-1.95-.36-1.36.12-1.97.36-1.13.58-1.57,1.03-.79.97-1.04,1.56c-.25.59-.38,1.25-.38,1.97s.13,1.36.38,1.96c.25.6.6,1.12,1.04,1.57s.96.79,1.57,1.03,1.26.36,1.97.36Z"/><path class="cls-2" d="m247.67,36.94c.87,0,1.63.17,2.29.5.66.33,1.19.85,1.58,1.54.39.69.59,1.58.59,2.66v6.12h-2.5v-5.8c0-.95-.22-1.65-.66-2.12-.44-.47-1.07-.7-1.88-.7-.59,0-1.11.12-1.56.36-.45.24-.8.6-1.05,1.07-.25.47-.37,1.07-.37,1.79v5.4h-2.48v-10.69h2.38v2.9l-.42-.9c.36-.68.9-1.21,1.61-1.58.71-.37,1.54-.56,2.47-.56Z"/><path class="cls-2" d="m260.94,47.91c-1.12,0-2.12-.24-2.99-.71s-1.56-1.12-2.05-1.94c-.49-.82-.74-1.76-.74-2.83s.25-2.03.74-2.84c.49-.81,1.18-1.46,2.05-1.93s1.87-.71,2.99-.71c1.03,0,1.94.21,2.74.64.8.43,1.4,1.05,1.8,1.86l-1.9,1.12c-.32-.49-.71-.86-1.17-1.11-.46-.25-.96-.37-1.49-.37-.61,0-1.17.14-1.66.41-.49.27-.88.66-1.16,1.16-.28.5-.42,1.09-.42,1.77s.14,1.27.42,1.78c.28.51.67.9,1.16,1.17.49.27,1.05.41,1.66.41.53,0,1.03-.12,1.49-.37.46-.25.85-.62,1.17-1.13l1.9,1.12c-.4.8-1,1.42-1.8,1.85-.8.43-1.71.65-2.74.65Z"/><path class="cls-2" d="m277.55,39.56c-.47-.83-1.11-1.47-1.92-1.93-.81-.46-1.74-.69-2.78-.69s-2.02.24-2.85.71-1.49,1.12-1.96,1.94c-.47.82-.71,1.76-.71,2.83s.24,2.01.73,2.83c.49.82,1.17,1.47,2.06,1.94s1.92.71,3.11.71c.93,0,1.76-.15,2.49-.44.73-.29,1.34-.72,1.83-1.28l-1.36-1.56c-.37.39-.8.68-1.28.88s-1.02.3-1.62.3c-.71,0-1.33-.14-1.86-.41-.53-.27-.94-.66-1.23-1.15-.18-.31-.28-.66-.35-1.02h8.37c.01-.11.02-.23.03-.37,0-.14,0-.26,0-.35,0-1.13-.23-2.11-.7-2.94Zm-7.41.92c.25-.48.62-.85,1.09-1.11.47-.26,1.01-.39,1.61-.39s1.15.13,1.6.39c.45.26.81.63,1.07,1.1.18.33.27.7.32,1.09h-6.01c.06-.39.15-.76.32-1.08Z"/></g><path class="cls-5" d="m73.27,33.85c-1.53,0-2.9.72-3.79,1.83h0c-1.29,1.56-2.71,2.73-4.27,3.53-1.56.8-3.27,1.2-5.13,1.2-1.63,0-3.13-.27-4.5-.8-1.37-.53-2.53-1.3-3.5-2.31-.97-1.01-1.73-2.21-2.28-3.62-.55-1.4-.83-2.96-.83-4.67s.28-3.26.83-4.67c.55-1.4,1.31-2.61,2.28-3.62.97-1,2.14-1.77,3.5-2.31,1.37-.53,2.87-.8,4.5-.8,1.86,0,3.57.4,5.13,1.2,1.56.8,2.98,1.96,4.27,3.47l7.18-6.49c-1.94-2.47-4.36-4.34-7.26-5.61-2.91-1.27-6.2-1.91-9.88-1.91-3.15,0-6.06.5-8.71,1.51-2.66,1.01-4.97,2.43-6.95,4.27-1.97,1.84-3.51,4.04-4.61,6.58-1.1,2.54-1.65,5.33-1.65,8.37s.55,5.83,1.65,8.37c1.1,2.54,2.64,4.74,4.61,6.58,1.97,1.84,4.29,3.27,6.95,4.27,2.66,1.01,5.56,1.51,8.71,1.51,3.68,0,6.98-.65,9.88-1.94,2.87-1.28,5.26-3.13,7.19-5.55.01-.02.04-.03.05-.05.02-.01.02-.03.04-.05.9-.88,1.46-2.1,1.46-3.45,0-2.68-2.18-4.86-4.86-4.86Zm0,9.02c-2.29,0-4.16-1.87-4.16-4.16s1.87-4.16,4.16-4.16,4.16,1.87,4.16,4.16-1.87,4.16-4.16,4.16Z"/><path class="cls-3" d="m29.99,28.3c-1.35-.85-2.82-1.54-4.41-2.05s-3.2-.94-4.81-1.28c-1.61-.34-3.08-.67-4.41-1-1.33-.32-2.41-.74-3.25-1.25-.84-.51-1.25-1.22-1.25-2.14,0-.61.21-1.18.63-1.71.42-.53,1.1-.97,2.05-1.31s2.2-.51,3.76-.51c1.75,0,3.55.25,5.41.74,1.85.49,3.71,1.26,5.6,2.31,0,0,0,0,0,0,.01,0,.02.01.03.02h0c.53.22,1.11.34,1.72.34,2.48,0,4.49-2.02,4.49-4.49,0-1.88-1.16-3.49-2.79-4.16h0c-1.94-1.18-4.17-2.06-6.69-2.65-2.53-.59-5.1-.88-7.72-.88-3.91,0-7.18.59-9.8,1.77-2.62,1.18-4.58,2.73-5.87,4.67-1.29,1.94-1.94,4.08-1.94,6.44,0,2.13.41,3.89,1.22,5.3.82,1.41,1.89,2.54,3.22,3.42,1.33.87,2.81,1.58,4.44,2.11,1.63.53,3.24.96,4.81,1.28,1.58.32,3.04.67,4.38,1.03,1.35.36,2.44.8,3.28,1.31.83.51,1.25,1.21,1.25,2.08,0,.68-.22,1.27-.66,1.77-.44.49-1.12.87-2.05,1.14-.93.27-2.19.4-3.79.4-2.32,0-4.64-.37-6.98-1.11-2.33-.74-4.4-1.68-6.18-2.82l-3.7,8.37c1.86,1.25,4.3,2.29,7.32,3.1,3.02.82,6.18,1.22,9.48,1.22,3.95,0,7.23-.59,9.85-1.77,2.62-1.18,4.58-2.74,5.89-4.7,1.31-1.96,1.96-4.09,1.96-6.41,0-2.09-.42-3.83-1.25-5.21-.84-1.39-1.93-2.51-3.27-3.36Zm1.06-16.07c.59,0,1.14.15,1.63.39.12.06.24.12.35.19.08.05.16.1.23.16.1.08.2.16.3.24.06.06.13.11.19.18.14.15.27.3.39.47.02.03.04.07.06.11.09.15.18.3.25.47.03.07.05.13.08.2.06.15.1.3.14.45.02.07.03.13.05.2.04.22.07.45.07.68,0,2.06-1.68,3.74-3.74,3.74-.25,0-.5-.03-.74-.07-1.71-.34-3-1.86-3-3.67,0-2.06,1.68-3.74,3.74-3.74Z"/><path class="cls-4" d="m121.4,20.7c-1.12-2.51-2.67-4.69-4.64-6.55-1.97-1.86-4.31-3.3-7.01-4.33-2.7-1.03-5.64-1.54-8.83-1.54s-6.13.51-8.83,1.54c-2.7,1.03-5.03,2.48-7.01,4.36-1.97,1.88-3.52,4.07-4.64,6.58-1.12,2.51-1.68,5.24-1.68,8.2s.56,5.76,1.68,8.29c1.12,2.53,2.67,4.73,4.64,6.61,1.97,1.88,4.32,3.33,7.03,4.36,2.71,1.03,5.65,1.54,8.8,1.54s6.13-.51,8.83-1.54c2.7-1.03,5.04-2.47,7.03-4.33,1.99-1.86,3.54-4.05,4.64-6.58,1.1-2.52,1.65-5.31,1.65-8.34s-.56-5.75-1.68-8.26Zm-10.54,13.01c-.55,1.39-1.31,2.58-2.28,3.59-.97,1.01-2.11,1.78-3.42,2.31-1.31.53-2.72.8-4.24.8s-2.93-.27-4.24-.8c-1.31-.53-2.46-1.3-3.45-2.31-.99-1.01-1.75-2.2-2.28-3.59-.53-1.39-.8-2.95-.8-4.7s.26-3.31.8-4.7c.53-1.39,1.29-2.58,2.28-3.59.99-1,2.14-1.77,3.45-2.31,1.31-.53,2.72-.8,4.24-.8s2.93.27,4.24.8c1.31.53,2.45,1.3,3.42,2.31.97,1.01,1.73,2.2,2.28,3.59.55,1.39.83,2.95.83,4.7s-.28,3.31-.83,4.7Zm2.18-11.37c-2.49,0-4.51-2.02-4.51-4.51s2.02-4.51,4.51-4.51,4.51,2.02,4.51,4.51-2.02,4.51-4.51,4.51Z"/><rect class="cls-1" x="0" width="278.34" height="57.46"/></g></g></svg>